<svg width="12" height="12" viewBox="0 0 12 12" fill="none" xmlns="http://www.w3.org/2000/svg">
<path d="M6 0C2.69156 0 0 2.69161 0 6C0 9.30839 2.69156 12 6 12C9.30844 12 12 9.30839 12 6C12 2.69161 9.30844 0 6 0ZM6 10.8387C3.33195 10.8387 1.16128 8.66808 1.16128 6C1.16128 3.33192 3.33195 1.16128 6 1.16128C8.66805 1.16128 10.8387 3.33195 10.8387 6C10.8387 8.66805 8.66805 10.8387 6 10.8387Z" fill="#818181"/>
<path d="M8.10629 3.84766L5.22652 6.7274L3.70159 5.20251L2.88048 6.02362L5.22652 8.36969L8.9274 4.66877L8.10629 3.84766Z" fill="#818181"/>
</svg>
