<svg width="30" height="30" viewBox="0 0 30 30" fill="none" xmlns="http://www.w3.org/2000/svg">
<path fill-rule="evenodd" clip-rule="evenodd" d="M15 4.42307C9.15852 4.42307 4.42307 9.15852 4.42307 15C4.42307 20.8415 9.15852 25.5769 15 25.5769C20.8415 25.5769 25.5769 20.8415 25.5769 15C25.5769 9.15852 20.8415 4.42307 15 4.42307ZM2.5 15C2.5 8.09644 8.09644 2.5 15 2.5C21.9035 2.5 27.5 8.09644 27.5 15C27.5 21.9035 21.9035 27.5 15 27.5C8.09644 27.5 2.5 21.9035 2.5 15Z" fill="#1A1A1A"/>
<path fill-rule="evenodd" clip-rule="evenodd" d="M10.3845 18.2692C10.7031 17.8444 11.3058 17.7582 11.7307 18.0769C12.309 18.5107 12.7831 18.7715 13.2621 18.9312C13.7411 19.0909 14.2769 19.1666 14.9999 19.1666C15.7229 19.1666 16.2586 19.0909 16.7376 18.9312C17.2166 18.7715 17.6908 18.5107 18.2691 18.0769C18.694 17.7582 19.2966 17.8444 19.6153 18.2692C19.9339 18.6941 19.8478 19.2967 19.423 19.6154C18.7348 20.1315 18.0774 20.5117 17.3458 20.7556C16.6141 20.9995 15.8601 21.0897 14.9999 21.0897C14.1396 21.0897 13.3856 20.9995 12.654 20.7556C11.9224 20.5117 11.265 20.1315 10.5768 19.6154C10.152 19.2967 10.0659 18.6941 10.3845 18.2692Z" fill="#1A1A1A"/>
</svg>
