<svg width="30" height="30" viewBox="0 0 30 30" fill="none" xmlns="http://www.w3.org/2000/svg">
<path d="M11.7188 28.125C18.1805 28.125 23.4375 22.868 23.4375 16.4062C23.4375 9.94453 18.1805 4.6875 11.7188 4.6875C5.25703 4.6875 0 9.94453 0 16.4062C0 22.868 5.25703 28.125 11.7188 28.125ZM11.7188 6.5625C17.1469 6.5625 21.5625 10.9781 21.5625 16.4062C21.5625 21.8344 17.1469 26.25 11.7188 26.25C6.29063 26.25 1.875 21.8344 1.875 16.4062C1.875 10.9781 6.29063 6.5625 11.7188 6.5625Z" fill="black"/>
<path d="M11.7188 24.375C16.1128 24.375 19.6875 20.8003 19.6875 16.4062C19.6875 12.0122 16.1128 8.4375 11.7188 8.4375C7.32469 8.4375 3.75 12.0122 3.75 16.4062C3.75 20.8003 7.32469 24.375 11.7188 24.375ZM11.7188 10.3125C15.0787 10.3125 17.8125 13.0462 17.8125 16.4062C17.8125 19.7662 15.0787 22.5 11.7188 22.5C8.35875 22.5 5.625 19.7662 5.625 16.4062C5.625 13.0462 8.35875 10.3125 11.7188 10.3125Z" fill="black"/>
<path d="M25.7812 30C26.2987 30 26.7188 29.58 26.7188 29.0625V11.1192C28.6477 10.5858 30 8.47781 30 6.5625C30 4.55813 28.4062 0 25.7812 0C23.1562 0 21.5625 4.55813 21.5625 6.5625C21.5625 8.47734 22.9148 10.5858 24.8438 11.1192V29.0625C24.8438 29.58 25.2638 30 25.7812 30ZM23.4375 6.5625C23.4375 4.63078 24.9534 1.875 25.7812 1.875C26.6091 1.875 28.125 4.63078 28.125 6.5625C28.125 7.83656 27.0797 9.375 25.7812 9.375C24.4828 9.375 23.4375 7.83656 23.4375 6.5625Z" fill="black"/>
</svg>
