<svg width="30" height="23" viewBox="0 0 30 23" fill="none" xmlns="http://www.w3.org/2000/svg">
<path d="M18.3273 0.583942C17.7701 0.587952 17.2169 0.616029 16.6323 0.776464C16.0476 0.936899 15.463 1.1936 14.8431 1.61073C14.074 1.14948 13.3285 0.768443 12.6144 0.680203C11.7276 0.567898 10.9037 0.628062 9.94629 0.648116C8.81234 0.672182 8.07077 1.26579 6.87012 1.73908C5.66947 2.21236 4.12354 2.6696 1.94196 2.6696H0.9375V12.5524L1.50251 12.8412L3.35449 13.7717L9.94629 21.2801L9.97768 21.3122C10.731 22.0742 11.7473 22.2628 12.6458 22.2106C13.5443 22.1585 14.3879 21.8897 15.0628 21.4726C16.5459 20.5581 20.5873 17.6863 20.5873 17.6863L20.6815 17.6222L20.7443 17.558C21.223 17.0727 21.4623 16.4791 21.6232 15.8574L25.4841 13.868L28.3719 12.8733L29.0625 12.6487V2.6696H28.058C25.8804 2.6696 24.3305 2.18829 23.1299 1.70699C21.9292 1.22568 21.1994 0.640095 20.0537 0.616029C19.4416 0.603996 18.8845 0.579931 18.3273 0.583942ZM18.3587 2.63751C18.8099 2.6335 19.3318 2.65757 19.9909 2.6696C20.0969 2.67361 21.0621 3.09475 22.4079 3.63221C23.5458 4.08945 25.127 4.49455 27.0536 4.62691V11.1727L24.7307 11.9748H24.668L24.6052 12.0069L21.5604 13.5792C21.3917 13.1099 21.1602 12.6768 20.8071 12.2957L20.7443 12.1995L16.4753 6.84092L15.8475 6.03874L15.0628 6.68048L12.3633 8.92658C11.4569 9.56832 10.7232 9.38382 9.97768 9.02284C9.76188 8.91856 9.77365 8.88647 9.601 8.76614L14.1839 4.88361L14.2467 4.81943C15.6082 3.43969 16.4439 2.96239 17.1659 2.76586C17.5269 2.66559 17.9075 2.64152 18.3587 2.63751ZM11.3588 2.6696C11.7433 2.66158 12.0651 2.66559 12.3633 2.70169C12.6262 2.73377 12.9244 2.96239 13.1794 3.05465C13.0774 3.15091 13.0028 3.20706 12.8969 3.31134C12.8734 3.33541 12.8577 3.35145 12.8341 3.37552L7.34096 8.02814L6.49344 8.73405L7.24679 9.53623C7.24679 9.53623 7.97267 10.3384 9.09877 10.8839C10.2249 11.4294 11.9631 11.7382 13.5247 10.6272L13.5875 10.563L15.5336 8.92658L19.2376 13.5792L19.269 13.6434L19.3004 13.6755C19.9635 14.3453 19.9478 15.4001 19.3004 16.082C19.2925 16.09 19.3082 16.1061 19.3004 16.1141C19.2925 16.1181 19.1591 16.1983 19.1434 16.2103L17.8251 14.3814L16.1928 15.6007L17.4798 17.3655C16.9579 17.7265 16.7225 17.915 16.1614 18.296L14.8117 16.4349L13.1794 17.6543L14.4664 19.419C14.3526 19.4912 14.1172 19.6517 14.0269 19.7078C13.7091 19.9044 13.097 20.125 12.5516 20.157C12.0376 20.1851 11.6452 20.0648 11.453 19.9004L11.4216 19.8683L4.70424 12.2636L4.57868 12.1032L2.94643 11.2689V4.62691C4.86511 4.49856 6.45813 4.10951 7.59208 3.6643C8.93398 3.13887 9.89136 2.7057 10.0091 2.70169C10.5231 2.68965 10.9743 2.67762 11.3588 2.6696Z" fill="#1A1A1A"/>
</svg>
