<svg width="34" height="34" viewBox="0 0 34 34" fill="none" xmlns="http://www.w3.org/2000/svg">
<path d="M21.25 4.25H12.75C8.05558 4.25 4.25 8.05558 4.25 12.75V21.25C4.25 25.9444 8.05558 29.75 12.75 29.75H21.25C25.9444 29.75 29.75 25.9444 29.75 21.25V12.75C29.75 8.05558 25.9444 4.25 21.25 4.25Z" stroke="#1A1A1A" stroke-width="1.5" stroke-linecap="round" stroke-linejoin="round"/>
<path d="M17 22.6666C20.1296 22.6666 22.6666 20.1295 22.6666 16.9999C22.6666 13.8703 20.1296 11.3333 17 11.3333C13.8704 11.3333 11.3333 13.8703 11.3333 16.9999C11.3333 20.1295 13.8704 22.6666 17 22.6666Z" stroke="#1A1A1A" stroke-width="1.5" stroke-linecap="round" stroke-linejoin="round"/>
<path d="M24.0834 11.1776C24.8658 11.1776 25.5 10.5433 25.5 9.7609C25.5 8.9785 24.8658 8.34424 24.0834 8.34424C23.3009 8.34424 22.6667 8.9785 22.6667 9.7609C22.6667 10.5433 23.3009 11.1776 24.0834 11.1776Z" fill="#1A1A1A"/>
</svg>
