<svg width="30" height="30" viewBox="0 0 30 30" fill="none" xmlns="http://www.w3.org/2000/svg">
<path d="M28.2964 15.8688L29.275 10.0357C29.5001 8.69365 29.1251 7.32812 28.2461 6.28932C27.367 5.25051 26.0825 4.65479 24.7216 4.65479H5.27836C3.91752 4.65479 2.63297 5.25062 1.75389 6.28932C0.874805 7.32818 0.499805 8.69359 0.72498 10.0357L1.70361 15.8688C0.679395 16.5344 0 17.688 0 18.998C0 20.8009 1.28584 22.309 2.98852 22.6539V25.3451H4.94502V22.7281H25.0549V25.3451H27.0114V22.6538C28.7142 22.309 30 20.8009 30 18.998C30 17.688 29.3206 16.5344 28.2964 15.8688ZM3.24744 7.55313C3.75398 6.95447 4.49426 6.61123 5.27836 6.61123H24.7216C25.5057 6.61123 26.246 6.95453 26.7526 7.55313C27.2591 8.15178 27.4753 8.93863 27.3455 9.71201L26.4127 15.2714C26.3653 15.2696 26.3177 15.2678 26.2699 15.2678H3.73014C3.68227 15.2678 3.6348 15.2696 3.58729 15.2714L2.65453 9.71201C2.52475 8.93869 2.7409 8.15178 3.24744 7.55313ZM26.2699 20.7715H3.73014C2.75221 20.7715 1.95656 19.9759 1.95656 18.998C1.95656 18.0709 2.6717 17.3082 3.5792 17.2313H26.4209C27.3284 17.3082 28.0436 18.0709 28.0436 18.998C28.0435 19.9759 27.2479 20.7715 26.2699 20.7715Z" fill="#1A1A1A"/>
</svg>
