<svg width="30" height="30" viewBox="0 0 30 30" fill="none" xmlns="http://www.w3.org/2000/svg">
<path d="M18.7795 11.6493C19.2402 11.6493 19.6122 11.2773 19.6122 10.8167V8.69658H29.1673C29.628 8.69658 30 8.32453 30 7.8639V2.78516C30 2.41311 29.752 2.0824 29.3858 1.98201C24.6142 0.670985 19.7776 0.00366211 15 0.00366211C10.2224 0.00366211 5.38583 0.670985 0.614173 1.98201C0.248031 2.0824 0 2.41311 0 2.78516V29.1651C0 29.6257 0.372047 29.9978 0.832677 29.9978H29.1673C29.628 29.9978 30 29.6257 30 29.1651V25.043C30 24.5824 29.628 24.2104 29.1673 24.2104H23.876C23.9232 24.1454 23.9646 24.0745 24.0118 24.0096C25.8602 23.5253 30 20.7615 30 17.8383C30 16.3678 28.6535 14.7202 26.5276 15.293C26.5335 15.1454 26.5394 15.0037 26.5394 14.856C26.5394 14.3954 26.1673 14.0233 25.7067 14.0233H11.8524C11.3917 14.0233 11.0197 14.3954 11.0197 14.856C11.0197 18.4997 12.0118 21.8954 13.6772 24.2104H10.813C9.98032 24.2104 9.27756 23.5608 9.2126 22.7281L8.11417 8.68476H17.9468V10.8108C17.9468 11.2714 18.3189 11.6493 18.7795 11.6493ZM26.3504 17.5371C26.4685 17.1297 26.8524 16.8403 27.3248 16.8403C27.8799 16.8403 28.3287 17.2891 28.3287 17.8442C28.3287 19.1848 26.6988 20.6493 25.3051 21.5588C26.3386 18.9308 26.3386 17.6493 26.3504 17.5371ZM12.7028 15.6887H24.8504C24.6909 19.2556 23.5217 22.4328 21.6968 24.2104H15.8504C14.0315 22.4328 12.8622 19.2556 12.7028 15.6887ZM10.813 25.8816H28.3346V28.3383H1.66535V8.69067H6.44291L7.55315 22.8639C7.68307 24.5529 9.11811 25.8816 10.813 25.8816ZM1.66535 7.02532V3.42886C6.09449 2.26547 10.5768 1.67492 15 1.67492C19.4232 1.67492 23.9055 2.26547 28.3346 3.42886V7.02532H1.66535Z" fill="black"/>
</svg>
