<svg width="30" height="30" viewBox="0 0 30 30" fill="none" xmlns="http://www.w3.org/2000/svg">
<path d="M27.8942 21.6632L25.1019 18.8709C25.1019 18.8709 25.1017 7.01663 25.1011 7.00114C25.092 6.78569 25.0086 6.58953 24.876 6.43745C24.8758 6.43727 24.8756 6.43708 24.8755 6.4369C24.8753 6.43671 24.875 6.43641 24.8749 6.43616C24.8614 6.42086 18.6595 0.221633 18.6595 0.221633C18.508 0.0914694 18.3138 0.00979592 18.1006 0.000795918C18.0852 0.000183674 5.81634 0 5.81634 0C5.30915 0 4.89797 0.411184 4.89797 0.918367V4.89796H2.75505C2.24787 4.89796 1.83669 5.30914 1.83669 5.81633V29.0816C1.83669 29.5888 2.24787 30 2.75505 30H27.2449C27.752 30 28.1632 29.5888 28.1632 29.0816V22.3127C28.1632 22.0691 28.0665 21.8355 27.8942 21.6632ZM18.9795 3.13549L21.9664 6.12245H18.9795V3.13549ZM6.73471 1.83673H17.1428V7.04082C17.1428 7.548 17.554 7.95918 18.0612 7.95918H23.2652V17.0342L11.3981 5.16698C11.2258 4.99475 10.9923 4.89796 10.7486 4.89796H6.73471V1.83673ZM26.3265 28.1633H3.67342V6.73469H10.3683L26.3265 22.693V28.1633Z" fill="#1A1A1A"/>
</svg>
