<svg width="30" height="30" viewBox="0 0 30 30" fill="none" xmlns="http://www.w3.org/2000/svg">
<path d="M27.466 4.1156V1.3682C27.466 0.864698 27.058 0.456055 26.5539 0.456055H2.2299C1.72579 0.456055 1.31775 0.864698 1.31775 1.3682V4.10465H0.91215C0.408643 4.10465 0 4.5133 0 5.0168C0 5.52031 0.408643 5.92895 0.91215 5.92895H1.31775V8.6654C1.31775 9.16891 1.72579 9.57755 2.2299 9.57755H26.5539C27.058 9.57755 27.466 9.16891 27.466 8.6654V5.95024C27.8631 6.00253 28.1757 6.32908 28.1757 6.74138V10.9956C28.1757 11.4432 27.8108 11.8068 27.3639 11.8068H23.528L17.1271 11.7059H15.8106C14.3572 11.7059 13.1751 12.8887 13.1751 14.3426V16.1657H12.415C11.9115 16.1657 11.5028 16.5744 11.5028 17.0779V28.6318C11.5028 29.1353 11.9115 29.5439 12.415 29.5439H15.7595C16.263 29.5439 16.6717 29.1353 16.6717 28.6318V17.0779C16.6717 16.5744 16.263 16.1657 15.7595 16.1657H14.9994V14.3426C14.9994 13.8951 15.3636 13.5302 15.8106 13.5302L23.514 13.6311H27.3639C28.8172 13.6311 30 12.4496 30 10.9956V6.74138C30 5.32268 28.8714 4.17033 27.466 4.1156ZM25.6417 7.75386H3.14205V2.28096H25.6417V7.75386ZM14.8474 27.7202H13.3271V17.9906H14.0812C14.0836 17.9906 14.0848 17.9906 14.0872 17.9906C14.0897 17.9906 14.0909 17.9906 14.0933 17.9906H14.8474V27.7202Z" fill="#1A1A1A"/>
</svg>
