<svg width="30" height="30" viewBox="0 0 30 30" fill="none" xmlns="http://www.w3.org/2000/svg">
<g clip-path="url(#clip0_192_527)">
<path d="M24.9 0C22.4777 0 20.4592 1.75542 20.0458 4.0607H1.03994C0.697037 4.0607 0.386072 4.26156 0.244811 4.57392C0.103724 4.88637 0.158606 5.25248 0.385025 5.50987L11.3002 17.908C11.4658 18.0963 11.7045 18.2041 11.9552 18.2041H12.0995C12.1076 21.5223 12.1076 24.8949 12.0996 28.255H8.69769C8.2158 28.255 7.82517 28.6458 7.82517 29.1276C7.82517 29.6094 8.2158 30.0001 8.69769 30.0001H12.9676C12.9685 30.0001 12.9693 30.0001 12.9701 30.0001H17.2424C17.7242 30.0001 18.1149 29.6094 18.1149 29.1276C18.1149 28.6458 17.7242 28.255 17.2424 28.255H13.8448C13.8527 24.8946 13.8527 21.5223 13.8446 18.2041H13.9848C14.2355 18.2041 14.474 18.0964 14.6397 17.9082L22.3467 9.15412C23.1116 9.61716 23.9929 9.86618 24.8993 9.86618C24.8995 9.86618 24.8998 9.86618 24.9001 9.86618C27.6202 9.86618 29.8332 7.65339 29.8332 4.93331C29.8331 2.21306 27.6201 0 24.9 0ZM22.9694 5.80574L21.5634 7.40271C21.5631 7.40323 21.5625 7.40367 21.562 7.40419C21.5616 7.40472 21.5612 7.40524 21.5608 7.40576L20.9309 8.12114H5.00894L2.97056 5.80574H22.9694ZM13.5904 16.4589H12.3494L6.54527 9.86609H19.3947L13.5904 16.4589ZM24.8999 8.12105C24.8997 8.12105 24.8996 8.12105 24.8993 8.12105C24.4209 8.12105 23.9533 8.01347 23.5288 7.81114L25.5549 5.50978C25.7815 5.25248 25.8363 4.88628 25.6951 4.57383C25.554 4.26147 25.2427 4.06062 24.9 4.06062H21.8343C22.2148 2.72566 23.4446 1.74504 24.9 1.74504C26.658 1.74504 28.088 3.17527 28.088 4.93322C28.088 6.69108 26.6579 8.12105 24.8999 8.12105Z" fill="#1A1A1A"/>
</g>
<defs>
<clipPath id="clip0_192_527">
<rect width="30" height="30" fill="white"/>
</clipPath>
</defs>
</svg>
