<svg width="30" height="30" viewBox="0 0 30 30" fill="none" xmlns="http://www.w3.org/2000/svg">
<g clip-path="url(#clip0_188_466)">
<path d="M29.9544 11.5545C29.8456 11.2198 29.5562 10.9758 29.2079 10.9252L19.9632 9.58132L15.8291 1.20447C15.6732 0.888828 15.3518 0.688965 14.9999 0.688965C14.6479 0.688965 14.3265 0.888828 14.1706 1.20447L10.0365 9.58132L0.791542 10.9252C0.443108 10.9759 0.153732 11.2199 0.0449854 11.5545C-0.0637617 11.8893 0.0268609 12.2567 0.279001 12.5024L6.96867 19.0231L5.38962 28.2298C5.33019 28.5768 5.47272 28.9274 5.75741 29.1342C6.0421 29.3411 6.41963 29.3685 6.7312 29.2046L14.9999 24.8579L23.2685 29.2046C23.4038 29.2757 23.5516 29.3108 23.6987 29.3108C23.6996 29.3108 23.7004 29.3108 23.7013 29.3108C23.7013 29.3108 23.7013 29.3108 23.7014 29.3108C24.2121 29.3108 24.6261 28.8967 24.6261 28.386C24.6261 28.3085 24.6165 28.2332 24.5986 28.1612L23.0312 19.0228L29.7205 12.5023C29.9725 12.2568 30.0632 11.8893 29.9544 11.5545ZM21.3921 18.0381C21.1741 18.2505 21.0746 18.5566 21.1261 18.8566L22.4708 26.6959L15.4303 22.9948C15.1609 22.8531 14.8391 22.8531 14.5699 22.9948L7.5293 26.6959L8.87396 18.8566C8.9255 18.5566 8.826 18.2506 8.60801 18.0381L2.91186 12.4859L10.7839 11.3416C11.0852 11.2978 11.3456 11.1087 11.4802 10.8357L15.0003 3.70318L18.5204 10.8357C18.655 11.1086 18.9154 11.2978 19.2165 11.3416L27.0882 12.4859L21.3921 18.0381Z" fill="#1A1A1A"/>
</g>
<defs>
<clipPath id="clip0_188_466">
<rect width="30" height="30" fill="white"/>
</clipPath>
</defs>
</svg>
