<svg width="26" height="26" viewBox="0 0 26 26" fill="none" xmlns="http://www.w3.org/2000/svg">
<g clip-path="url(#clip0_192_534)">
<path d="M0.24588 0.246066C0.480797 0.0110921 0.83215 -0.0634576 1.14224 0.055822L23.7705 8.75857C24.0858 8.87984 24.2979 9.17798 24.3091 9.51556C24.3202 9.8532 24.1283 10.1647 23.8217 10.3064L18.09 12.9577L25.7532 20.621C26.0816 20.9493 26.0816 21.4817 25.7532 21.8101L21.8098 25.7535C21.6521 25.9112 21.4383 25.9998 21.2153 25.9998C20.9923 25.9998 20.7785 25.9112 20.6208 25.7535L12.9575 18.0903L10.3062 23.822C10.1683 24.12 9.87003 24.3097 9.54326 24.3097C9.53393 24.3097 9.52465 24.3095 9.51532 24.3093C9.17774 24.2981 8.8796 24.086 8.75833 23.7707L0.0556355 1.14243C-0.0636444 0.832278 0.0109062 0.48104 0.24588 0.246066ZM21.2153 23.9699L23.9696 21.2155L16.464 13.7098L14.5807 14.581L13.7096 16.4642L21.2153 23.9699ZM9.6144 21.312L13.1843 13.5946C13.268 13.4135 13.4134 13.2682 13.5944 13.1845L21.3118 9.61464L2.3042 2.30444L9.6144 21.312Z" fill="#1A1A1A"/>
</g>
<defs>
<clipPath id="clip0_192_534">
<rect width="26" height="26" fill="white" transform="matrix(-1 0 0 1 26 0)"/>
</clipPath>
</defs>
</svg>
