<svg width="30" height="30" viewBox="0 0 30 30" fill="none" xmlns="http://www.w3.org/2000/svg">
<path d="M28 20.9375H26.875V16.7987C26.875 15.0081 25.1644 13.4375 23.2144 13.4375H15.625V9.68746H17.375C18.4788 9.68541 19.373 8.79115 19.375 7.68748V3.56248C19.373 2.45875 18.4787 1.56455 17.375 1.5625H12.625C11.5213 1.56455 10.6271 2.45881 10.625 3.56248V7.68748C10.6271 8.79121 11.5213 9.68541 12.625 9.68746H14.375V13.4375H6.78562C4.83563 13.4375 3.12498 15.0081 3.12498 16.7987V20.9375H1.99998C0.896309 20.9396 0.00205078 21.8338 0 22.9375V26.4375C0.00205078 27.5412 0.896309 28.4354 1.99998 28.4375H5.49996C6.60369 28.4354 7.49789 27.5412 7.49994 26.4375V22.9375C7.49789 21.8338 6.60363 20.9396 5.49996 20.9375H4.37496V16.7988C4.37496 15.59 5.64744 14.6875 6.78557 14.6875H14.3749V20.9375H13.2499C12.1462 20.9396 11.252 21.8338 11.2499 22.9375V26.4375C11.252 27.5412 12.1462 28.4354 13.2499 28.4375H16.7499C17.8536 28.4354 18.7478 27.5412 18.7499 26.4375V22.9375C18.7478 21.8338 17.8536 20.9396 16.7499 20.9375H15.6249V14.6875H23.2143C24.3524 14.6875 25.6249 15.59 25.6249 16.7988V20.9375H24.4999C23.3961 20.9396 22.5019 21.8338 22.4999 22.9375V26.4375C22.5019 27.5412 23.3962 28.4354 24.4999 28.4375H27.9998C29.1036 28.4354 29.9978 27.5412 29.9998 26.4375V22.9375C29.9979 21.8338 29.1037 20.9396 28 20.9375ZM5.50002 22.1875C5.91422 22.1875 6.25002 22.5233 6.25002 22.9375V26.4375C6.25002 26.8517 5.91422 27.1875 5.50002 27.1875H1.99998C1.58578 27.1875 1.24998 26.8517 1.24998 26.4375V22.9375C1.24998 22.5233 1.58578 22.1875 1.99998 22.1875H5.50002ZM16.75 22.1875C17.1642 22.1875 17.5 22.5233 17.5 22.9375V26.4375C17.5 26.8517 17.1642 27.1875 16.75 27.1875H13.25C12.8358 27.1875 12.5 26.8517 12.5 26.4375V22.9375C12.5 22.5233 12.8358 22.1875 13.25 22.1875H16.75ZM12.625 8.43748C12.2108 8.43748 11.875 8.10168 11.875 7.68748V3.56248C11.875 3.14828 12.2108 2.81248 12.625 2.81248H17.375C17.7892 2.81248 18.125 3.14828 18.125 3.56248V7.68748C18.125 8.10168 17.7892 8.43748 17.375 8.43748H12.625ZM28.75 26.4375C28.75 26.8517 28.4142 27.1875 28 27.1875H24.5C24.0858 27.1875 23.75 26.8517 23.75 26.4375V22.9375C23.75 22.5233 24.0858 22.1875 24.5 22.1875H28C28.4142 22.1875 28.75 22.5233 28.75 22.9375V26.4375Z" fill="black"/>
</svg>
