<svg width="30" height="30" viewBox="0 0 30 30" fill="none" xmlns="http://www.w3.org/2000/svg">
<path d="M24.7902 0H8.77689C7.71623 0 6.85343 0.862852 6.85343 1.92352V3.56643H4.6598C3.90289 3.56643 3.28712 4.18225 3.28712 4.9391V28.6274C3.28712 29.3843 3.90294 30 4.6598 30H21.7742C22.5311 30 23.1468 29.3842 23.1468 28.6274V26.4336H24.7902C25.8508 26.4336 26.7137 25.5707 26.7137 24.51V1.92352C26.7137 0.862852 25.8508 0 24.7902 0ZM21.7616 28.6147H4.6724V4.95158H15.7017V9.44373C15.7017 10.3082 16.405 11.0114 17.2694 11.0114H21.7616V28.6147ZM17.0871 5.93121L20.7821 9.62619H17.2695C17.1689 9.62619 17.0871 9.54439 17.0871 9.44385V5.93121ZM24.7902 25.0482H23.1469V10.3189C23.1469 10.3133 23.146 10.3082 23.1456 10.3029C23.1415 10.1283 23.0725 9.95766 22.944 9.8291L16.8842 3.76928C16.8839 3.76898 16.8835 3.76881 16.8833 3.76852C16.758 3.64365 16.5852 3.56648 16.3944 3.56648H8.23865V1.92352C8.23865 1.6268 8.48005 1.38533 8.77683 1.38533H24.7901C25.0869 1.38533 25.3283 1.62674 25.3283 1.92352V24.51H25.3284C25.3285 24.8068 25.087 25.0482 24.7902 25.0482Z" fill="#1A1A1A"/>
</svg>
