<svg width="20" height="20" viewBox="0 0 20 20" fill="none" xmlns="http://www.w3.org/2000/svg">
<g clip-path="url(#clip0_166_2084)">
<path d="M19.9554 7.67806C19.8484 7.34886 19.5639 7.10893 19.2214 7.05923L13.413 6.21532L10.8153 0.951549C10.6621 0.641191 10.346 0.444672 9.99997 0.444672C9.65384 0.444672 9.33773 0.641191 9.18461 0.951549L6.58712 6.21526L0.778527 7.05917C0.436042 7.10893 0.151447 7.34886 0.0445189 7.678C-0.062409 8.00721 0.0267582 8.36855 0.27462 8.61011L4.47772 12.7067L3.48512 18.4923C3.42663 18.8335 3.56684 19.1782 3.84682 19.3816C4.00522 19.4967 4.19282 19.5553 4.38134 19.5553C4.52603 19.5553 4.67133 19.5208 4.80439 19.4509L9.9999 16.7195L15.1954 19.4509C15.3292 19.5212 15.4758 19.5548 15.621 19.5553C16.1226 19.5546 16.5289 19.1478 16.5289 18.6461C16.5289 18.5762 16.5211 18.5082 16.5061 18.4429L15.5221 12.7068L19.7253 8.61011C19.9732 8.36855 20.0623 8.00721 19.9554 7.67806Z" fill="#FFC72C"/>
</g>
<defs>
<clipPath id="clip0_166_2084">
<rect width="20" height="20" fill="white"/>
</clipPath>
</defs>
</svg>
