<svg width="18" height="18" viewBox="0 0 18 18" fill="none" xmlns="http://www.w3.org/2000/svg">
<path d="M9.00011 1.40576C7.81544 1.40596 6.64725 1.68333 5.58893 2.21569C4.53061 2.74805 3.61153 3.52064 2.90516 4.47168C2.1988 5.42272 1.72474 6.52584 1.52089 7.69284C1.31704 8.85984 1.38906 10.0583 1.73118 11.1925C2.07331 12.3267 2.67605 13.3651 3.49122 14.2248C4.30639 15.0844 5.31138 15.7414 6.42583 16.1432C7.54028 16.545 8.73328 16.6804 9.90944 16.5388C11.0856 16.3971 12.2123 15.9822 13.1995 15.3273C13.2918 15.2659 13.3711 15.187 13.4328 15.095C13.4946 15.0031 13.5377 14.8998 13.5595 14.7912C13.5814 14.6826 13.5817 14.5707 13.5603 14.462C13.5389 14.3532 13.4964 14.2498 13.435 14.1575C13.3737 14.0653 13.2948 13.986 13.2028 13.9242C13.1108 13.8624 13.0075 13.8194 12.8989 13.7975C12.7903 13.7756 12.6784 13.7754 12.5697 13.7967C12.461 13.8181 12.3575 13.8607 12.2652 13.922C11.1687 14.6496 9.86052 14.9901 8.54837 14.8896C7.23622 14.7891 5.99521 14.2532 5.02226 13.3671C4.0493 12.481 3.40013 11.2954 3.17773 9.99829C2.95533 8.70122 3.17244 7.36703 3.79463 6.20741C4.41681 5.04778 5.40843 4.12914 6.61215 3.59724C7.81586 3.06534 9.16273 2.95064 10.439 3.27135C11.7154 3.59206 12.848 4.3298 13.6573 5.36752C14.4666 6.40525 14.9062 7.68352 14.9064 8.99951C14.9064 9.65258 14.7892 10.2007 14.5765 10.5428C14.3911 10.841 14.1533 10.9683 13.7814 10.9683C13.4094 10.9683 13.1716 10.841 12.9862 10.5428C12.7735 10.2007 12.6564 9.65258 12.6564 8.99951V6.18701C12.6564 5.98452 12.5836 5.78878 12.4512 5.63552C12.3189 5.48227 12.1358 5.38173 11.9355 5.35226C11.7352 5.32278 11.5309 5.36635 11.36 5.475C11.1892 5.58364 11.0631 5.75013 11.0048 5.94404C10.4247 5.56271 9.748 5.35441 9.05387 5.34349C8.35974 5.33257 7.67685 5.51948 7.08504 5.88237C6.49323 6.24526 6.01695 6.76913 5.7119 7.39273C5.40685 8.01632 5.28563 8.71388 5.36242 9.40383C5.43921 10.0938 5.71083 10.7476 6.14552 11.2889C6.58021 11.8302 7.16001 12.2365 7.81713 12.4604C8.47425 12.6843 9.18152 12.7165 9.85626 12.5532C10.531 12.3899 11.1453 12.038 11.6274 11.5384C12.115 12.2553 12.8542 12.6558 13.7814 12.6558C15.5162 12.6558 16.5939 11.2548 16.5939 8.99951C16.5916 6.98622 15.7908 5.05604 14.3672 3.63242C12.9436 2.20881 11.0134 1.40803 9.00011 1.40576ZM9.00011 10.9683C8.61073 10.9683 8.23009 10.8528 7.90633 10.6365C7.58257 10.4201 7.33023 10.1127 7.18122 9.75292C7.03221 9.39318 6.99322 8.99733 7.06919 8.61543C7.14515 8.23353 7.33266 7.88273 7.60799 7.6074C7.88333 7.33206 8.23412 7.14456 8.61602 7.06859C8.99792 6.99263 9.39377 7.03161 9.75352 7.18062C10.1133 7.32963 10.4207 7.58197 10.6371 7.90573C10.8534 8.22949 10.9689 8.61013 10.9689 8.99951C10.9683 9.52148 10.7607 10.0219 10.3916 10.391C10.0225 10.7601 9.52207 10.9677 9.00011 10.9683Z" fill="#3D3D3D"/>
</svg>
