<svg width="20" height="20" viewBox="0 0 20 20" fill="none" xmlns="http://www.w3.org/2000/svg">
<g clip-path="url(#clip0_164_1078)">
<path d="M19.835 5.31985C19.7275 5.03888 19.4579 4.85335 19.1571 4.85335H15.6064L18.1705 1.13821C18.3982 0.808301 18.3153 0.356243 17.9854 0.128534C17.6556 -0.0991755 17.2035 -0.0163044 16.9758 0.313604L13.8425 4.85335H8.84434C8.64317 4.00772 8.19572 3.23707 7.54747 2.63645C6.72747 1.87663 5.65977 1.45821 4.54109 1.45821C2.10174 1.45821 0.117188 3.44259 0.117188 5.88174C0.117188 8.32113 2.10174 10.3057 4.54113 10.3057C5.27034 10.3057 5.97487 10.1293 6.60889 9.79286L10.3502 13.146V18.5483H9.02373C8.62285 18.5483 8.29788 18.8733 8.29788 19.2741C8.29788 19.675 8.62285 20 9.02373 20H13.1284C13.5293 20 13.8543 19.675 13.8543 19.2741C13.8543 18.8733 13.5293 18.5483 13.1284 18.5483H11.8019V13.146L19.6415 6.11973C19.8655 5.91898 19.9425 5.60081 19.835 5.31985ZM14.6464 8.64718L11.0761 11.8472L7.50566 8.64718H14.6464ZM5.8859 7.19548L4.89244 6.30505H12.8406L12.2261 7.19548H5.8859ZM4.54109 8.85398C2.90221 8.85398 1.56884 7.52066 1.56884 5.88174C1.56884 4.24306 2.90217 2.9099 4.54109 2.9099C5.29274 2.9099 6.01004 3.19095 6.56082 3.70129C6.9086 4.02352 7.17007 4.41847 7.3303 4.85335H2.99499C2.6942 4.85335 2.42456 5.03892 2.31705 5.31985C2.20958 5.60081 2.28652 5.91894 2.51054 6.11973L5.4153 8.72317C5.13488 8.80931 4.84114 8.85398 4.54109 8.85398ZM16.2662 7.19548H13.9899L14.6044 6.30505H17.2596L16.2662 7.19548Z" fill="#3D3D3D"/>
</g>
<defs>
<clipPath id="clip0_164_1078">
<rect width="20" height="20" fill="white"/>
</clipPath>
</defs>
</svg>
