<svg width="20" height="20" viewBox="0 0 20 20" fill="none" xmlns="http://www.w3.org/2000/svg">
<path d="M2.91056 6.72086L3.98222 15.8334H16.0189L17.0906 6.72086L13.7489 8.94836L10.0006 3.70086L6.25222 8.94836L2.91056 6.72086ZM2.33472 4.33336L5.83389 6.66669L9.32222 1.78336C9.39931 1.67534 9.50108 1.58728 9.61907 1.52653C9.73705 1.46578 9.86785 1.43408 10.0006 1.43408C10.1333 1.43408 10.2641 1.46578 10.382 1.52653C10.5 1.58728 10.6018 1.67534 10.6789 1.78336L14.1672 6.66669L17.6672 4.33336C17.7997 4.24523 17.9546 4.19687 18.1137 4.19397C18.2728 4.19108 18.4293 4.23379 18.5649 4.31705C18.7005 4.4003 18.8094 4.52063 18.8788 4.66381C18.9481 4.80698 18.9751 4.96703 18.9564 5.12503L17.5872 16.7642C17.5633 16.9669 17.4659 17.1538 17.3134 17.2894C17.1608 17.4251 16.9638 17.5 16.7597 17.5H3.24139C3.03728 17.5 2.84027 17.4251 2.68775 17.2894C2.53522 17.1538 2.43777 16.9669 2.41389 16.7642L1.04472 5.12419C1.02622 4.96626 1.05329 4.80634 1.12274 4.66329C1.19219 4.52025 1.30111 4.40006 1.43665 4.31691C1.57219 4.23376 1.72869 4.19113 1.88767 4.19405C2.04666 4.19696 2.20149 4.2453 2.33389 4.33336H2.33472ZM10.0006 12.5C9.55853 12.5 9.13461 12.3244 8.82204 12.0119C8.50948 11.6993 8.33389 11.2754 8.33389 10.8334C8.33389 10.3913 8.50948 9.96741 8.82204 9.65485C9.13461 9.34229 9.55853 9.16669 10.0006 9.16669C10.4426 9.16669 10.8665 9.34229 11.1791 9.65485C11.4916 9.96741 11.6672 10.3913 11.6672 10.8334C11.6672 11.2754 11.4916 11.6993 11.1791 12.0119C10.8665 12.3244 10.4426 12.5 10.0006 12.5Z" fill="#3D3D3D"/>
</svg>
