<svg width="20" height="20" viewBox="0 0 20 20" fill="none" xmlns="http://www.w3.org/2000/svg">
<path d="M10.0012 9.69696C9.33282 9.69696 8.78906 10.2407 8.78906 10.9091C8.78906 11.5774 9.33282 12.1212 10.0012 12.1212C10.6695 12.1212 11.2133 11.5774 11.2133 10.9091C11.2133 10.2407 10.6695 9.69696 10.0012 9.69696Z" fill="#3D3D3D"/>
<path d="M17.5762 0H13.9399H2.42472C1.92266 0 1.51562 0.40703 1.51562 0.909091V19.0909C1.51562 19.593 1.92266 20 2.42472 20H13.9399H17.5762C18.0783 20 18.4853 19.593 18.4853 19.0909V0.909091C18.4853 0.40703 18.0783 0 17.5762 0ZM3.33381 1.81818H13.0308V18.1818H3.33381V1.81818ZM16.6671 18.1818H14.849V1.81818H16.6671V18.1818Z" fill="#3D3D3D"/>
</svg>
