<svg width="20" height="20" viewBox="0 0 20 20" fill="none" xmlns="http://www.w3.org/2000/svg">
<g clip-path="url(#clip0_164_1102)">
<path d="M18.6957 8.15568V6.08697C18.6957 4.28892 17.2329 2.82611 15.4348 2.82611H4.56523C2.76719 2.82611 1.30437 4.28892 1.30437 6.08697V8.15568C0.545273 8.4249 0 9.14979 0 10V13.2609C0 13.9801 0.585117 14.5652 1.30434 14.5652V16.5217C1.30434 16.8819 1.59633 17.1739 1.95652 17.1739H4.56523C4.92539 17.1739 5.21742 16.8819 5.21742 16.5217V14.5653H14.7827V16.5218C14.7827 16.8819 15.0746 17.174 15.4348 17.174H18.0436C18.4037 17.174 18.6957 16.882 18.6957 16.5218V14.5653C19.415 14.5653 20.0001 13.9801 20.0001 13.2609V10C20 9.14979 19.4547 8.4249 18.6957 8.15568ZM10.6522 4.13045H15.4348C16.5136 4.13045 17.3913 5.00814 17.3913 6.08697V8.15568C16.6322 8.4249 16.087 9.14983 16.087 10V10.6522H10.6522V4.13045ZM2.60871 6.08697C2.60871 5.00814 3.48641 4.13045 4.56523 4.13045H9.34785V10.6522H3.91309V10C3.91309 9.14979 3.36781 8.4249 2.60875 8.15568V6.08697H2.60871ZM3.91305 15.8696H2.60871V14.5653H3.91305V15.8696ZM17.3913 15.8696H16.087V14.5653H17.3913V15.8696ZM18.6957 13.2609H18.0435H15.4348H4.56523H1.95652H1.30434V10C1.30434 9.64041 1.59691 9.34783 1.95652 9.34783C2.31613 9.34783 2.60871 9.64041 2.60871 10V11.3044C2.60871 11.6645 2.9007 11.9565 3.2609 11.9565H16.7391C17.0993 11.9565 17.3913 11.6646 17.3913 11.3044V10C17.3913 9.64041 17.6839 9.34783 18.0435 9.34783C18.4031 9.34783 18.6957 9.64041 18.6957 10L18.6965 13.2609C18.6965 13.2609 18.6962 13.2609 18.6957 13.2609Z" fill="#3D3D3D"/>
</g>
<defs>
<clipPath id="clip0_164_1102">
<rect width="20" height="20" fill="white"/>
</clipPath>
</defs>
</svg>
