<svg width="20" height="20" viewBox="0 0 20 20" fill="none" xmlns="http://www.w3.org/2000/svg">
<g clip-path="url(#clip0_164_1109)">
<path d="M16.5154 3.03031C15.0116 3.03031 13.7881 4.25375 13.7881 5.75758V9.39395C13.7881 9.89523 13.3803 10.303 12.879 10.303H11.5105C11.6114 10.0185 11.6669 9.71262 11.6669 9.39395C11.6669 8.69594 11.403 8.05867 10.9702 7.57578C11.4031 7.09289 11.6669 6.45559 11.6669 5.75762C11.6669 5.43895 11.6114 5.13309 11.5105 4.84852H11.6669C12.169 4.84852 12.576 4.44148 12.576 3.93941C12.576 3.43734 12.169 3.03031 11.6669 3.03031H11.1915L11.9049 1.24676C12.017 0.96668 11.9827 0.649258 11.8136 0.399414C11.6445 0.149648 11.3625 0 11.0609 0H6.8184C6.51672 0 6.23477 0.149648 6.06563 0.399375C5.89652 0.64918 5.8623 0.966602 5.97434 1.24672L6.68773 3.03031H6.21234C5.71027 3.03031 5.30324 3.43734 5.30324 3.93941C5.30324 4.44148 5.71027 4.84852 6.21234 4.84852H6.36871C6.26781 5.13305 6.21234 5.43895 6.21234 5.75762C6.21234 6.45563 6.47617 7.09289 6.90902 7.57578C6.47617 8.05867 6.21234 8.69598 6.21234 9.39395C6.21234 9.71262 6.26781 10.0185 6.36871 10.303H5.00023C4.49816 10.303 4.09113 10.7101 4.09113 11.2121C4.09113 11.7142 4.49816 12.1212 5.00023 12.1212H5.15879C4.49164 12.952 4.09117 14.0056 4.09117 15.1516C4.09117 16.2975 4.49164 17.3511 5.15879 18.1819H1.66691C1.16484 18.1819 0.757812 18.5889 0.757812 19.091C0.757812 19.593 1.16484 20.0001 1.66691 20.0001H16.2123C16.7144 20.0001 17.1214 19.593 17.1214 19.091C17.1214 18.5889 16.7144 18.1819 16.2123 18.1819H12.7205C13.3876 17.3511 13.7881 16.2975 13.7881 15.1516C13.7881 14.0056 13.3876 12.952 12.7205 12.1212H12.879C14.3829 12.1212 15.6063 10.8978 15.6063 9.39398V5.75762C15.6063 5.25633 16.0141 4.84852 16.5154 4.84852C17.0167 4.84852 17.4245 5.25633 17.4245 5.75762V15.1516C17.4245 15.6536 17.8315 16.0607 18.3336 16.0607C18.8357 16.0607 19.2427 15.6536 19.2427 15.1516V5.75758C19.2427 4.25375 18.0192 3.03031 16.5154 3.03031ZM9.71805 1.81816L9.2332 3.03027H8.64598L8.16113 1.81816H9.71805ZM8.93965 4.84848C9.44094 4.84848 9.84875 5.25629 9.84875 5.75758C9.84875 6.25887 9.44094 6.66668 8.93965 6.66668C8.43836 6.66668 8.03055 6.25887 8.03055 5.75758C8.03055 5.25629 8.43836 4.84848 8.93965 4.84848ZM8.93965 8.48484C9.44094 8.48484 9.84875 8.89266 9.84875 9.39395C9.84875 9.89523 9.44094 10.303 8.93965 10.303C8.43836 10.303 8.03055 9.89523 8.03055 9.39395C8.03055 8.89266 8.43836 8.48484 8.93965 8.48484ZM8.93965 18.1818C7.26875 18.1818 5.90934 16.8225 5.90934 15.1515C5.90934 13.4806 7.26871 12.1212 8.93965 12.1212C10.6106 12.1212 11.97 13.4806 11.97 15.1515C11.97 16.8225 10.6105 18.1818 8.93965 18.1818Z" fill="#3D3D3D"/>
</g>
<defs>
<clipPath id="clip0_164_1109">
<rect width="20" height="20" fill="white"/>
</clipPath>
</defs>
</svg>
