<svg width="20" height="20" viewBox="0 0 20 20" fill="none" xmlns="http://www.w3.org/2000/svg">
<path d="M6.28046 18.9226H13.7209L13.7092 19.0323C13.683 19.2791 13.7629 19.5255 13.9289 19.71C14.095 19.8945 14.3316 20 14.5798 20H17.9468C18.3945 20 18.7702 19.6622 18.8174 19.2169L19.7601 10.328C19.7863 10.0811 19.7065 9.83481 19.5404 9.65024C19.3743 9.46572 19.1378 9.36027 18.8895 9.36027H17.9146C18.1964 8.59636 18.5236 7.64451 18.6085 7.12875C18.8427 5.70734 18.4182 4.31003 17.3809 3.08788C15.7643 1.18323 12.9234 0 9.96699 0C7.03292 0 4.10908 1.22276 2.51817 3.11515C1.49265 4.33508 1.08066 5.72586 1.32686 7.13697C1.41702 7.65414 1.761 8.59825 2.05945 9.36034H1.11177C0.863489 9.36034 0.626991 9.46572 0.46093 9.6503C0.294869 9.83488 0.215071 10.0812 0.241199 10.3281L1.18396 19.217C1.23117 19.6622 1.60679 20 2.05453 20H5.42154C5.42207 20 5.42261 20 5.42288 20C5.90638 20 6.2983 19.6081 6.2983 19.1246L6.28046 18.9226ZM2.84201 18.2492L2.08497 11.1111H3.6913L4.44834 18.2492H2.84201ZM6.0948 17.1717L5.80194 14.4104C6.208 14.3153 10.2231 13.4267 14.1994 14.4102L13.9066 17.1717H6.0948ZM14.652 10.1434L14.3856 12.6546C10.4597 11.7469 6.65622 12.4341 5.61601 12.6576L5.34935 10.1434C5.30214 9.69811 4.92652 9.36027 4.47878 9.36027H3.94558C3.58268 8.47401 3.12982 7.28451 3.05164 6.83616C2.85649 5.71724 3.38261 4.80774 3.85837 4.24189C5.13049 2.72862 7.52827 1.75084 9.96699 1.75084C12.3863 1.75084 14.7724 2.72034 16.046 4.22094C16.5301 4.79125 17.0679 5.70936 16.8809 6.84424C16.8074 7.29071 16.3848 8.47253 16.0436 9.36027H15.5225C15.0748 9.36027 14.6992 9.69811 14.652 10.1434ZM17.1593 18.2492H15.553L16.31 11.1111H17.9164L17.1593 18.2492Z" fill="#3D3D3D"/>
</svg>
