<svg width="20" height="20" viewBox="0 0 20 20" fill="none" xmlns="http://www.w3.org/2000/svg">
<g clip-path="url(#clip0_164_1090)">
<path d="M12.6875 2.68744C8.6554 2.68744 5.375 5.96784 5.375 9.99996C5.375 14.0321 8.6554 17.3125 12.6875 17.3125C16.7196 17.3125 20 14.0321 20 9.99996C20 5.96784 16.7197 2.68744 12.6875 2.68744ZM12.6875 15.9051C9.43149 15.9051 6.7825 13.2561 6.7825 10C6.7825 6.74402 9.43149 4.09494 12.6875 4.09494C15.9435 4.09494 18.5925 6.74394 18.5925 9.99996C18.5925 13.256 15.9436 15.9051 12.6875 15.9051Z" fill="#3D3D3D"/>
<path d="M12.6868 5.78198C10.3609 5.78198 8.46875 7.67417 8.46875 10C8.46875 12.3258 10.3609 14.218 12.6868 14.218C15.0126 14.218 16.9048 12.3258 16.9048 9.99996C16.9048 7.67413 15.0126 5.78198 12.6868 5.78198ZM12.6868 12.8106C11.137 12.8106 9.87625 11.5498 9.87625 10C9.87625 8.45031 11.137 7.18952 12.6868 7.18952C14.2365 7.18952 15.4973 8.45031 15.4973 10C15.4973 11.5498 14.2365 12.8106 12.6868 12.8106Z" fill="#3D3D3D"/>
<path d="M4.31606 2.68744C3.92739 2.68744 3.61231 3.00252 3.61231 3.39119V7.14749H3.20153V3.39119C3.20153 3.00252 2.88645 2.68744 2.49778 2.68744C2.10911 2.68744 1.79403 3.00252 1.79403 3.39119V7.14749H1.40746V3.39119C1.40746 3.00252 1.09238 2.68744 0.703712 2.68744C0.31504 2.68744 0 3.00256 0 3.39119V7.28824C0 7.98671 0.568243 8.55496 1.26672 8.55496H1.74711V16.6087C1.74711 16.9974 2.06219 17.3124 2.45086 17.3124C2.83954 17.3124 3.15462 16.9974 3.15462 16.6087V8.55504H3.75309C4.45157 8.55504 5.01981 7.98679 5.01981 7.28831V3.39119C5.01981 3.00256 4.70474 2.68744 4.31606 2.68744Z" fill="#3D3D3D"/>
</g>
<defs>
<clipPath id="clip0_164_1090">
<rect width="20" height="20" fill="white"/>
</clipPath>
</defs>
</svg>
