<svg width="20" height="20" viewBox="0 0 20 20" fill="none" xmlns="http://www.w3.org/2000/svg">
<path d="M18.5675 2.04564L18.2445 1.71228L17.8237 1.90818C14.7444 3.34205 12.5204 4.79509 10.8248 6.48099C9.21937 8.0772 8.2025 9.7733 7.21773 11.5156C7.19328 11.5588 7.0709 11.6223 6.80645 11.6589C6.4475 11.7085 5.96144 11.6923 5.44699 11.6751C4.29887 11.6366 2.99754 11.5931 1.9777 12.1911C0.646914 12.9713 0 14.4072 0 16.5806V17.0308L0.421016 17.1904C0.53918 17.2352 3.35156 18.2876 6.48906 18.2876C8.20285 18.2876 9.21914 18.0627 9.99703 17.5111C10.7936 16.9462 11.2693 16.1051 11.8686 14.7503C12.8471 12.5369 13.7315 11.1015 14.5966 10.1725C15.45 12.1489 15.6508 16.1064 15.6512 17.6356L15.6514 18.2877H18.1464L18.1737 17.664C18.3495 13.6506 18.9718 11.2662 19.4261 9.5251C19.7467 8.29642 20 7.32603 20 6.25873C20 3.55541 18.6259 2.10599 18.5675 2.04564ZM18.1641 9.19564C17.7367 10.8332 17.1655 13.0221 16.9298 16.5373C16.9047 15.8962 16.8555 15.0308 16.7583 14.0949C16.5343 11.9354 16.1518 10.3244 15.6189 9.29072C16.4903 8.71342 17.3724 8.54392 18.343 8.50142C18.2873 8.72361 18.227 8.95431 18.1641 9.19564ZM18.6207 7.18853C17.291 7.21857 15.8973 7.43306 14.5726 8.43517C13.2008 9.47291 11.9625 11.312 10.6756 14.2227C10.1707 15.3643 9.7927 16.057 9.24254 16.4471C8.70547 16.8279 7.9077 16.9833 6.48906 16.9833C4.2818 16.9833 2.19297 16.399 1.31645 16.1181C1.3552 15.4026 1.4866 14.8069 1.70863 14.3431C1.92449 13.892 2.22832 13.5562 2.63746 13.3162C3.33145 12.9093 4.43219 12.9463 5.40336 12.9787C6.65809 13.0208 7.84297 13.0603 8.35332 12.1574C9.3273 10.4342 10.2548 8.88713 11.7445 7.40595C13.2432 5.91591 15.2079 4.60896 17.9007 3.31466C18.2177 3.80634 18.6957 4.79123 18.6957 6.25869C18.6957 6.5656 18.6684 6.87236 18.6207 7.18853Z" fill="#3D3D3D"/>
</svg>
