<svg width="60" height="60" viewBox="0 0 60 60" fill="none" xmlns="http://www.w3.org/2000/svg">
<path d="M30.3522 23.3534L30.35 23.3568L18.4254 5.82061C17.8431 4.96429 16.6769 4.74216 15.8206 5.32446C14.9643 5.90674 14.7422 7.07296 15.3244 7.92926L28.1515 26.7922L22.162 36.1509C20.7699 35.4159 19.1835 34.9999 17.5 34.9999C11.9771 34.9999 7.5 39.4772 7.5 44.9999C7.5 50.5227 11.9771 54.9999 17.5 54.9999C23.0229 54.9999 27.5 50.5227 27.5 44.9999C27.5 42.5219 26.5988 40.2544 25.106 38.5074L30.445 30.1652L35.6065 37.7557C33.6928 39.5772 32.5 42.1492 32.5 44.9999C32.5 50.5227 36.9772 54.9999 42.5 54.9999C48.0228 54.9999 52.5 50.5227 52.5 44.9999C52.5 39.4772 48.0228 34.9999 42.5 34.9999C41.1775 34.9999 39.9147 35.2567 38.7593 35.7232L32.6437 26.7297L32.647 26.7247L30.3522 23.3534ZM11.25 44.9999C11.25 41.5482 14.0482 38.7499 17.5 38.7499C20.9518 38.7499 23.75 41.5482 23.75 44.9999C23.75 48.4517 20.9518 51.2499 17.5 51.2499C14.0482 51.2499 11.25 48.4517 11.25 44.9999ZM36.25 44.9999C36.25 41.5482 39.0483 38.7499 42.5 38.7499C45.9518 38.7499 48.75 41.5482 48.75 44.9999C48.75 48.4517 45.9518 51.2499 42.5 51.2499C39.0483 51.2499 36.25 48.4517 36.25 44.9999Z" fill="white"/>
<path d="M34.8441 23.2899L44.7026 7.88571C45.2609 7.01351 45.0064 5.85394 44.1341 5.29574C43.2621 4.73751 42.1024 4.99206 41.5441 5.86426L32.5494 19.9187L34.8441 23.2899Z" fill="white"/>
</svg>
