<svg width="64" height="64" viewBox="0 0 64 64" fill="none" xmlns="http://www.w3.org/2000/svg">
<path d="M13.3333 8V6C12.2288 6 11.3333 6.89544 11.3333 8H13.3333ZM50.6666 56V58C51.7712 58 52.6666 57.1045 52.6666 56H50.6666ZM13.3333 56H11.3333C11.3333 57.1045 12.2288 58 13.3333 58V56ZM37.3333 8L38.7474 6.58579C38.3725 6.21072 37.8637 6 37.3333 6V8ZM50.6666 21.3333H52.6666C52.6666 20.8029 52.456 20.2942 52.0808 19.9191L50.6666 21.3333ZM50.6666 54H13.3333V58H50.6666V54ZM15.3333 56V8H11.3333V56H15.3333ZM13.3333 10H37.3333V6H13.3333V10ZM48.6666 21.3333V56H52.6666V21.3333H48.6666ZM35.9192 9.41421L49.2525 22.7475L52.0808 19.9191L38.7474 6.58579L35.9192 9.41421ZM32.6666 8V18.6667H36.6666V8H32.6666ZM40 26H50.6666V22H40V26ZM32.6666 18.6667C32.6666 22.7167 35.9498 26 40 26V22C38.1589 22 36.6666 20.5076 36.6666 18.6667H32.6666Z" fill="#3D3D3D"/>
</svg>
