<svg width="60" height="60" viewBox="0 0 60 60" fill="none" xmlns="http://www.w3.org/2000/svg">
<path d="M16.6183 24.6199V34.853V38.4169V42.5866V46.1505V53.884H24.3517H27.9156H32.0852H35.6491H43.3825V46.1505V42.5866V38.4169V34.853V24.6199H16.6183ZM24.3516 50.32H20.1821V46.1504H24.3516V50.32ZM24.3517 42.5866H20.1822V38.4169H24.3517V42.5866ZM32.085 50.32H27.9155V46.1504H32.085V50.32ZM32.085 42.5865H27.9155V38.4168H32.085V42.5865ZM39.8185 50.32H35.649V46.1504H39.8185V50.32ZM39.8185 42.5865H35.649V38.4168H39.8185V42.5865ZM39.8185 34.853H35.649H32.085H27.9155H24.3516H20.1821V28.1838H20.1822H39.8185V34.853Z" fill="white"/>
<path d="M43.3825 10.4715V0L37.7339 3.5066L33.8671 1.10625L30.0004 3.5066L26.1337 1.10625L22.267 3.5066L16.6184 0V10.4715H10.3746V60H49.6263V10.4715H43.3825ZM20.1823 10.4715V6.40723L22.2671 7.70156L26.1338 5.30109L30.0005 7.70156L33.8673 5.30109L37.734 7.70156L39.8187 6.40723V10.4716V17.9729H20.1823V10.4715ZM46.0625 56.4361H46.0624H13.9385V14.0353H16.6184V21.5366H43.3825V14.0353H46.0625V56.4361Z" fill="white"/>
</svg>
