<svg width="60" height="60" viewBox="0 0 60 60" fill="none" xmlns="http://www.w3.org/2000/svg">
<g clip-path="url(#clip0_192_1174)">
<path d="M20.3608 0C12.8376 0 6.71704 6.12055 6.71704 13.6438C6.71704 21.167 12.8376 27.2875 20.3608 27.2875C27.884 27.2875 34.0046 21.167 34.0046 13.6438C34.0046 6.12055 27.884 0 20.3608 0ZM20.3608 25.2512C13.9605 25.2512 8.75342 20.0441 8.75342 13.6438C8.75342 7.24342 13.9605 2.03638 20.3608 2.03638C26.7612 2.03638 31.9682 7.24342 31.9682 13.6438C31.9682 20.0441 26.7612 25.2512 20.3608 25.2512Z" fill="white"/>
<path d="M20.3611 4.53345C15.3376 4.53345 11.2507 8.62034 11.2507 13.6438C11.2507 18.6673 15.3376 22.7542 20.3611 22.7542C25.3846 22.7542 29.4715 18.6673 29.4715 13.6438C29.4715 8.62034 25.3846 4.53345 20.3611 4.53345ZM20.3611 20.7178C16.4605 20.7178 13.2871 17.5445 13.2871 13.6438C13.2871 9.7432 16.4605 6.56983 20.3611 6.56983C24.2617 6.56983 27.4351 9.7432 27.4351 13.6438C27.4351 17.5445 24.2617 20.7178 20.3611 20.7178Z" fill="white"/>
<path d="M39.6396 22.2644C33.2145 22.2644 27.8133 26.7288 26.3732 32.7184C26.2444 32.7149 26.1154 32.7124 25.9864 32.7124C18.4632 32.7124 12.3427 38.833 12.3427 46.3562C12.3427 53.8794 18.4632 59.9999 25.9864 59.9999C29.2297 59.9999 32.3728 58.8423 34.8367 56.7404C37.0379 54.8626 38.5812 52.3336 39.2509 49.5461C39.3801 49.5498 39.5096 49.5519 39.6396 49.5519C47.1628 49.5519 53.2833 43.4314 53.2833 35.9082C53.2833 28.385 47.1628 22.2644 39.6396 22.2644ZM26.4218 39.2964C27.3516 42.9219 29.7378 45.9694 32.917 47.7772C32.257 51.0433 29.3869 53.4306 25.9864 53.4306C22.0857 53.4306 18.912 50.2571 18.912 46.3562C18.912 42.4554 22.0855 39.2818 25.9864 39.2818C26.1315 39.2818 26.2768 39.2876 26.4218 39.2964ZM25.9864 57.9636C19.5861 57.9636 14.379 52.7565 14.379 46.3562C14.379 39.9558 19.5861 34.7488 25.9864 34.7488C26.0061 34.7488 26.0257 34.7501 26.0453 34.7501C26.013 35.132 25.9957 35.518 25.9957 35.9082C25.9957 36.3598 26.0183 36.8064 26.0614 37.2469C26.0364 37.2466 26.0113 37.2454 25.9863 37.2454C20.9627 37.2454 16.8755 41.3324 16.8755 46.3562C16.8755 51.3799 20.9625 55.467 25.9863 55.467C30.197 55.467 33.7752 52.6234 34.8006 48.6646C35.5726 48.9584 36.3775 49.1848 37.2088 49.3349C35.8804 54.3928 31.3166 57.9636 25.9864 57.9636ZM39.6396 47.5156C33.2391 47.5156 28.0322 42.3085 28.0322 35.9082C28.0322 29.5078 33.2392 24.3008 39.6396 24.3008C46.0399 24.3008 51.2469 29.5078 51.2469 35.9082C51.2469 42.3085 46.0399 47.5156 39.6396 47.5156Z" fill="white"/>
<path d="M39.6389 26.7979C34.6155 26.7979 30.5286 30.8847 30.5286 35.9082C30.5286 40.9317 34.6155 45.0186 39.6389 45.0186C44.6624 45.0186 48.7492 40.9317 48.7492 35.9082C48.7492 30.8847 44.6624 26.7979 39.6389 26.7979ZM39.6389 42.9822C35.7383 42.9822 32.5649 39.8088 32.5649 35.9082C32.5649 32.0076 35.7383 28.8342 39.6389 28.8342C43.5394 28.8342 46.7128 32.0076 46.7128 35.9082C46.7128 39.8088 43.5396 42.9822 39.6389 42.9822Z" fill="white"/>
</g>
<defs>
<clipPath id="clip0_192_1174">
<rect width="60" height="60" fill="white"/>
</clipPath>
</defs>
</svg>
