<svg width="60" height="60" viewBox="0 0 60 60" fill="none" xmlns="http://www.w3.org/2000/svg">
<path fill-rule="evenodd" clip-rule="evenodd" d="M11.25 11.25C9.17893 11.25 7.5 12.9289 7.5 15V48.75C7.5 50.8211 9.17893 52.5 11.25 52.5H48.75C50.8211 52.5 52.5 50.8211 52.5 48.75V15C52.5 12.9289 50.8211 11.25 48.75 11.25H11.25ZM3.75 15C3.75 10.8579 7.10786 7.5 11.25 7.5H48.75C52.8921 7.5 56.25 10.8579 56.25 15V48.75C56.25 52.8921 52.8921 56.25 48.75 56.25H11.25C7.10786 56.25 3.75 52.8921 3.75 48.75V15Z" fill="#3D3D3D"/>
<path d="M34.6875 30C36.2408 30 37.5 28.7408 37.5 27.1875C37.5 25.6342 36.2408 24.375 34.6875 24.375C33.1342 24.375 31.875 25.6342 31.875 27.1875C31.875 28.7408 33.1342 30 34.6875 30Z" fill="#3D3D3D"/>
<path d="M44.0625 30C45.6158 30 46.875 28.7408 46.875 27.1875C46.875 25.6342 45.6158 24.375 44.0625 24.375C42.5092 24.375 41.25 25.6342 41.25 27.1875C41.25 28.7408 42.5092 30 44.0625 30Z" fill="#3D3D3D"/>
<path d="M34.6875 39.375C36.2408 39.375 37.5 38.1158 37.5 36.5625C37.5 35.0092 36.2408 33.75 34.6875 33.75C33.1342 33.75 31.875 35.0092 31.875 36.5625C31.875 38.1158 33.1342 39.375 34.6875 39.375Z" fill="#3D3D3D"/>
<path d="M44.0625 39.375C45.6158 39.375 46.875 38.1158 46.875 36.5625C46.875 35.0092 45.6158 33.75 44.0625 33.75C42.5092 33.75 41.25 35.0092 41.25 36.5625C41.25 38.1158 42.5092 39.375 44.0625 39.375Z" fill="#3D3D3D"/>
<path d="M15.9375 39.375C17.4908 39.375 18.75 38.1158 18.75 36.5625C18.75 35.0092 17.4908 33.75 15.9375 33.75C14.3842 33.75 13.125 35.0092 13.125 36.5625C13.125 38.1158 14.3842 39.375 15.9375 39.375Z" fill="#3D3D3D"/>
<path d="M25.3125 39.375C26.8658 39.375 28.125 38.1158 28.125 36.5625C28.125 35.0092 26.8658 33.75 25.3125 33.75C23.7592 33.75 22.5 35.0092 22.5 36.5625C22.5 38.1158 23.7592 39.375 25.3125 39.375Z" fill="#3D3D3D"/>
<path d="M15.9375 48.75C17.4908 48.75 18.75 47.4908 18.75 45.9375C18.75 44.3842 17.4908 43.125 15.9375 43.125C14.3842 43.125 13.125 44.3842 13.125 45.9375C13.125 47.4908 14.3842 48.75 15.9375 48.75Z" fill="#3D3D3D"/>
<path d="M25.3125 48.75C26.8658 48.75 28.125 47.4908 28.125 45.9375C28.125 44.3842 26.8658 43.125 25.3125 43.125C23.7592 43.125 22.5 44.3842 22.5 45.9375C22.5 47.4908 23.7592 48.75 25.3125 48.75Z" fill="#3D3D3D"/>
<path d="M34.6875 48.75C36.2408 48.75 37.5 47.4908 37.5 45.9375C37.5 44.3842 36.2408 43.125 34.6875 43.125C33.1342 43.125 31.875 44.3842 31.875 45.9375C31.875 47.4908 33.1342 48.75 34.6875 48.75Z" fill="#3D3D3D"/>
<path fill-rule="evenodd" clip-rule="evenodd" d="M15 3.75C16.0355 3.75 16.875 4.58947 16.875 5.625V9.375C16.875 10.4105 16.0355 11.25 15 11.25C13.9645 11.25 13.125 10.4105 13.125 9.375V5.625C13.125 4.58947 13.9645 3.75 15 3.75Z" fill="#3D3D3D"/>
<path fill-rule="evenodd" clip-rule="evenodd" d="M45 3.75C46.0355 3.75 46.875 4.58947 46.875 5.625V9.375C46.875 10.4105 46.0355 11.25 45 11.25C43.9645 11.25 43.125 10.4105 43.125 9.375V5.625C43.125 4.58947 43.9645 3.75 45 3.75Z" fill="#3D3D3D"/>
<path fill-rule="evenodd" clip-rule="evenodd" d="M5.625 16.875H54.375V20.625H5.625V16.875Z" fill="#3D3D3D"/>
</svg>
