<svg width="15" height="14" viewBox="0 0 15 14" fill="none" xmlns="http://www.w3.org/2000/svg">
<g clip-path="url(#clip0_215_174)">
<path d="M1.70326 5.85139C2.1855 5.85139 2.62109 5.58115 2.80763 5.16598C3.57781 3.45332 5.38881 2.24633 7.50007 2.24633C8.6637 2.24633 9.73051 2.61857 10.5858 3.23598L9.91541 3.33284C9.68642 3.36597 9.50829 3.53553 9.47726 3.74983C9.44617 3.96401 9.56987 4.17181 9.78103 4.26037L13.4676 5.80832C13.6292 5.87605 13.8164 5.86303 13.9653 5.7737C14.114 5.68422 14.2043 5.53067 14.2053 5.36545L14.2244 1.57421C14.2257 1.35854 14.0751 1.1678 13.8543 1.10493C13.6331 1.04206 13.3941 1.12186 13.2661 1.30139L12.758 2.01413C11.4033 0.769435 9.5469 0 7.50007 0C4.39654 0 1.7282 1.76891 0.590154 4.28307C0.432098 4.63155 0.471935 5.03058 0.695721 5.34585C0.919506 5.66123 1.29778 5.85139 1.70326 5.85139Z" fill="#1A1A1A"/>
<path d="M14.3046 8.65419C14.0808 8.33878 13.7024 8.14865 13.297 8.14865C12.8148 8.14865 12.3792 8.41889 12.1926 8.83407C11.4224 10.5467 9.61141 11.7537 7.50018 11.7537C6.33652 11.7537 5.26972 11.3815 4.41441 10.7641L5.08481 10.6673C5.31377 10.6341 5.4919 10.4645 5.52299 10.2502C5.55406 10.0361 5.43039 9.82823 5.21923 9.73967L1.53269 8.19172C1.37106 8.12403 1.18388 8.13699 1.03491 8.22635C0.886242 8.31582 0.795884 8.46938 0.794929 8.63457L0.77578 12.4258C0.774487 12.6415 0.925094 12.8322 1.14595 12.8951C1.36715 12.958 1.60615 12.8781 1.7341 12.6986L2.24222 11.9858C3.59694 13.2306 5.45332 14 7.50015 14C10.6037 14 13.272 12.2311 14.41 9.71697C14.5682 9.36849 14.5283 8.96949 14.3046 8.65419Z" fill="#1A1A1A"/>
</g>
<defs>
<clipPath id="clip0_215_174">
<rect width="15" height="14" fill="white"/>
</clipPath>
</defs>
</svg>
